<svg xmlns="http://www.w3.org/2000/svg" version="1.1" xmlns:xlink="http://www.w3.org/1999/xlink" xmlns:svgjs="http://svgjs.dev/svgjs" width="100%" height="100%" viewBox="0 0 1000 600"><rect width="333.3333333333333" height="333.3333333333333" x="0" y="0" fill="transparent"/><g><rect width="333.3333333333333" height="333.3333333333333" rx="13.333333333333334" ry="13.333333333333334" y="209.1008642995316" fill="#38a8df" transform="matrix(0.6688832540776426,0,0,0.6688832540776425,0,48.655394614190655)" x="186.87860107421875"/><path d="M315.4053935370684 450.76751341100373L295.04825129624567 450.76751341100373L295.04825129624567 300.7675179523099L315.4053935370684 300.7675179523099L315.4053935370684 362.7020398867428L391.685153132432 362.7020398867428L391.685153132432 300.7675179523099L412.04229537325466 300.7675179523099L412.04229537325466 450.76751341100373L391.685153132432 450.76751341100373L391.685153132432 381.98775358857483L315.4053935370684 381.98775358857483L315.4053935370684 450.76751341100373Z " fill="#f0f4f8" transform="matrix(0.6688832540776426,0,0,0.6688832540776425,0,48.655394614190655)"/><path d="M622.2952711763445 448.79382971297844L603.5452715946227 448.79382971297844L603.5452715946227 310.6359380581862L622.2952711763445 310.6359380581862L622.2952711763445 367.68089292596846L692.5529450476208 367.68089292596846L692.5529450476208 310.6359380581862L711.3029446293426 310.6359380581862L711.3029446293426 448.79382971297844L692.5529450476208 448.79382971297844L692.5529450476208 385.4440504244417L622.2952711763445 385.4440504244417L622.2952711763445 448.79382971297844ZM755.1351804936309 448.79382971297844L737.3720229951575 448.79382971297844L737.3720229951575 352.08330555462385L755.1351804936309 352.08330555462385L755.1351804936309 448.79382971297844ZM755.1351804936309 330.3727797231565L737.3720229951575 330.3727797231565L737.3720229951575 310.6359380581862L755.1351804936309 310.6359380581862L755.1351804936309 330.3727797231565ZM798.145047955212 448.79382971297844L779.2031624128585 448.79382971297844L779.2031624128585 352.08330555462385L793.8139077009546 352.08330555462385L795.9794778280833 368.0646648472317Q803.3807934524472 358.8815510170025 810.1516266347356 354.4955862025647Q816.8950475369338 350.1096213881268 824.5978982422903 350.1096213881268L824.5978982422903 350.1096213881268Q827.0650034504116 350.1096213881268 829.1483367372696 350.712691550112L829.1483367372696 350.712691550112L827.3665385314041 370.2302349743604Q826.078161367163 369.9561121734581 824.6527228024707 369.7916384929166Q823.2272842377785 369.6545770924655 821.445486031913 369.6545770924655L821.445486031913 369.6545770924655Q813.7426353265565 369.6545770924655 807.2733372252608 373.0536998236548Q800.8040391239649 376.45282255484415 798.145047955212 380.50984000819915L798.145047955212 380.50984000819915L798.145047955212 448.79382971297844ZM885.3983354824348 450.7675138794755L885.3983354824348 450.7675138794755Q868.3204849862176 450.7675138794755 856.670265947867 443.74997017637486Q845.0200469095165 436.75983875336453 839.0441698498449 425.16444427519446Q833.0957050702635 413.5690497970244 833.0957050702635 399.6436115111843L833.0957050702635 399.6436115111843Q833.0957050702635 386.12935742669765 838.6603979285816 374.89032258970065Q844.2250907868996 363.62387547261346 854.8336431818212 356.8804545704153Q865.4421955767427 350.1096213881268 880.4641250661924 350.1096213881268L880.4641250661924 350.1096213881268Q892.4981160258062 350.1096213881268 901.9279403768476 354.90677040391824Q911.3303524477986 359.6765071396194 916.7305716255753 368.80479640966814Q922.1033785232617 377.9330856797169 922.1033785232617 390.95391872257926L922.1033785232617 390.95391872257926Q922.1033785232617 393.0372520094372 921.9389048427203 395.4495326573781Q921.8018434422692 397.86181330531883 921.3084224006449 400.4385676338011L921.3084224006449 400.4385676338011L851.2426344900002 400.4385676338011Q852.5310116542413 413.870584878017 857.6571080311155 421.3541373426516Q862.7832044079897 428.8651020873764 870.5957042337071 431.90786517739264Q878.3807917793343 434.9780405474992 887.5639056095637 434.9780405474992L887.5639056095637 434.9780405474992Q894.2799142316716 434.9780405474992 901.5715807356745 433.60742654298735Q908.8632472396774 432.20940025838524 915.3873699011536 429.24887400863975L915.3873699011536 429.24887400863975L917.744825988914 443.25654913475057Q912.1253085704155 445.7236543428719 904.0386859437957 448.2455841111737Q895.952063317176 450.7675138794755 885.3983354824348 450.7675138794755ZM852.8325467352339 388.2126907135556L852.8325467352339 388.2126907135556L903.7371508628031 388.2126907135556Q903.7371508628031 381.3870329710867 901.1878088144111 376.3705857145734Q898.611054485929 371.32672617796993 893.3753089886937 368.61291044903646Q888.1395634914586 365.8990947201031 880.0529408648388 365.8990947201031L880.0529408648388 365.8990947201031Q868.2108358658567 365.8990947201031 861.8511868849217 371.76532265941364Q855.4915379039868 377.6315505987243 852.8325467352339 388.2126907135556ZM978.3533772684272 450.7675138794755L978.3533772684272 450.7675138794755Q966.0178512278206 450.7675138794755 956.0397812749744 444.05150525736747Q946.0891236022186 437.33549663525946 940.1954833828178 425.9868126779015Q934.3292554435071 414.6381287205437 934.3292554435071 400.63045359443277L934.3292554435071 400.63045359443277Q934.3292554435071 387.3080854705778 939.7020623411935 375.7675155525882Q945.1022815189702 364.2269456345987 954.9707023514553 357.1545773713176Q964.8391231839404 350.1096213881268 978.3533772684272 350.1096213881268L978.3533772684272 350.1096213881268Q988.0299121402805 350.1096213881268 997.0485522899684 354.30370024193303Q1006.0671924396562 358.49777909573925 1011.714122138245 368.2565508078634L1011.714122138245 368.2565508078634L1007.9586397658826 370.83330513634564L1007.9586397658826 300.767517225701L1025.7217972643557 300.767517225701L1025.7217972643557 448.79382971297844L1009.9323239323795 448.79382971297844L1006.5606134812805 428.26203192539117L1011.1110519762598 431.41444413576835Q1006.8621485622731 441.0087421673512 997.7886838524048 445.8881280234133Q988.7152191425365 450.7675138794755 978.3533772684272 450.7675138794755ZM981.5057894788043 434.9780405474992L981.5057894788043 434.9780405474992Q988.2217981009122 434.9780405474992 994.7733330424787 431.5240932561294Q1001.3522802641356 428.0701459647596 1005.6285959582125 420.5317689399445Q1009.9323239323795 412.9659796350393 1009.9323239323795 400.63045359443277L1009.9323239323795 400.63045359443277Q1009.9323239323795 389.1995327968042 1005.6285959582125 381.44185753126715Q1001.3522802641356 373.6841822657302 994.7733330424787 369.7916384929166Q988.2217981009122 365.8990947201031 981.5057894788043 365.8990947201031L981.5057894788043 365.8990947201031Q972.432324768936 365.8990947201031 965.9082021074597 370.4495332150823Q959.4114917260737 374.9725594299714 955.9575444347038 382.81247153577897Q952.503597143334 390.67979592167694 952.503597143334 400.63045359443277L952.503597143334 400.63045359443277Q952.503597143334 410.00545338529366 955.9575444347038 417.81795321101106Q959.4114917260737 425.6030407566383 965.9082021074597 430.29054065206867Q972.432324768936 434.9780405474992 981.5057894788043 434.9780405474992ZM1091.8402168420062 450.7675138794755L1091.8402168420062 450.7675138794755Q1076.6264013919251 450.7675138794755 1065.935612156733 443.996680697187Q1055.2174106414504 437.2532597949888 1049.5430686627715 425.8497512774504Q1043.8687266840925 414.446242759912 1043.8687266840925 400.4385676338011L1043.8687266840925 400.4385676338011Q1043.8687266840925 386.43089250769026 1049.5430686627715 375.02738399015186Q1055.2174106414504 363.62387547261346 1065.935612156733 356.8804545704153Q1076.6264013919251 350.1096213881268 1091.8402168420062 350.1096213881268L1091.8402168420062 350.1096213881268Q1106.9443831717267 350.1096213881268 1117.6899969670994 356.8804545704153Q1128.4356107624722 363.62387547261346 1134.1099527411511 375.02738399015186Q1139.78429471983 386.43089250769026 1139.78429471983 400.4385676338011L1139.78429471983 400.4385676338011Q1139.78429471983 414.446242759912 1134.1099527411511 425.8497512774504Q1128.4356107624722 437.2532597949888 1117.6899969670994 443.996680697187Q1106.9443831717267 450.7675138794755 1091.8402168420062 450.7675138794755ZM1091.8402168420062 434.9780405474992L1091.8402168420062 434.9780405474992Q1106.2316638893803 434.9780405474992 1113.934514594737 425.8497512774504Q1121.6373653000935 416.72146200740167 1121.6373653000935 400.4385676338011L1121.6373653000935 400.4385676338011Q1121.6373653000935 384.1556732602006 1113.934514594737 375.02738399015186Q1106.2316638893803 365.8990947201031 1091.8402168420062 365.8990947201031L1091.8402168420062 365.8990947201031Q1077.531006634903 365.8990947201031 1069.7733313693661 375.02738399015186Q1062.0430683839195 384.1556732602006 1062.0430683839195 400.4385676338011L1062.0430683839195 400.4385676338011Q1062.0430683839195 416.72146200740167 1069.7733313693661 425.8497512774504Q1077.531006634903 434.9780405474992 1091.8402168420062 434.9780405474992ZM1175.913679878762 448.79382971297844L1158.1505223802887 448.79382971297844L1158.1505223802887 352.08330555462385L1171.966311545768 352.08330555462385L1175.5299079574986 370.64141917571396L1168.8138993353905 367.4890069653368Q1177.887364045259 357.70282297312235 1186.4674077135028 353.91992832066967Q1195.0474513817471 350.1096213881268 1204.532100292969 350.1096213881268L1204.532100292969 350.1096213881268Q1211.6318808363399 350.1096213881268 1218.2108280579969 352.4396651957969Q1224.7623629995633 354.74229672337674 1230.0529330569789 360.52628782241675Q1235.3160908343043 366.28286664136635 1238.4685030446817 376.5624716752051L1238.4685030446817 376.5624716752051L1233.5342926284393 374.39690154807636Q1237.8928451627867 363.1304544309892 1246.856660752294 356.63374404960314Q1255.8478886218918 350.1096213881268 1271.0342917918829 350.1096213881268L1271.0342917918829 350.1096213881268Q1283.1779318718577 350.1096213881268 1291.4838527391994 354.60523532292564Q1299.7623613264504 359.10084925772435 1303.9564401802568 368.31137536804385Q1308.150519034063 377.54931375845365 1308.150519034063 391.74887484519616L1308.150519034063 391.74887484519616L1308.150519034063 448.79382971297844L1290.3873615355897 448.79382971297844L1290.3873615355897 391.94076080582784Q1290.3873615355897 378.34426988107043 1285.0693791980839 372.1216823005867Q1279.723984580488 365.8990947201031 1267.6899936208738 365.8990947201031L1267.6899936208738 365.8990947201031Q1259.1921867929004 365.8990947201031 1254.0660904160263 368.50326132867553Q1248.9399940391518 371.13484021733825 1246.3358274305797 375.274094510964Q1243.704248541917 379.41334880458965 1242.88188013921 384.0460241398397Q1242.0320994564127 388.7061117551799 1242.0320994564127 392.7357169284446L1242.0320994564127 392.7357169284446L1242.0320994564127 448.79382971297844L1224.2689419579392 448.79382971297844L1224.2689419579392 395.50435721755855Q1224.2689419579392 383.6622522185763 1221.4180648285546 377.24777867746104Q1218.53977541908 370.83330513634564 1213.4136790422053 368.3661999282243Q1208.2875826653312 365.8990947201031 1201.5715740432233 365.8990947201031L1201.5715740432233 365.8990947201031Q1191.8128023310992 365.8990947201031 1184.1099516257427 370.20282269427014Q1176.4071009203863 374.4791383883471 1173.7481097516334 383.854138179208L1173.7481097516334 383.854138179208L1175.913679878762 374.1776033073545L1175.913679878762 448.79382971297844Z " fill="#38a8df" transform="matrix(0.6688832540776426,0,0,0.6688832540776425,0,48.655394614190655)"/></g></svg>